# xmcd CD database file
#
# Track frame offsets:
#	150
#	13902
#	26756
#	50934
#	66509
#	85237
#	92833
#	122225
#	138740
#	157317
#	170140
#	196444
#
# Disc length: 2946 seconds
#
# Revision: 0
# Processed by: cddbd v1.5.2PL0 Copyright (c) Steve Scherf et al.
# Submitted via: CDex 1.51
#
DISCID=c00b800c
DTITLE=Kevin Doherty - 'Telegraph'
DYEAR=2009
DGENRE=Country
TTITLE0=Love and Money
TTITLE1=Mammon
TTITLE2=They Belong To Me
TTITLE3=Country Music
TTITLE4=The Stars Will Be Our Satellites Tonight
TTITLE5=Jimmy's Jump
TTITLE6=Tugboat
TTITLE7=A Brief History Of Our Times
TTITLE8=Christian McCoy Thinks of Her Man Charlie
TTITLE9=When I Dream
TTITLE10=Camden Street
TTITLE11=Looking For Love
EXTD=YEAR: 2009
EXTT0=
EXTT1=
EXTT2=
EXTT3=
EXTT4=
EXTT5=
EXTT6=
EXTT7=
EXTT8=
EXTT9=
EXTT10=
EXTT11=
PLAYORDER=
